#!OML:ASF E:\Steps\Project 1\Capture day 1\Session 2\Subject.ASF
:FULLY-SPECIFIED
:DEGREES
287
root 9.59839 11.6076 21.9183 -136.926 -0.146243 -180.603
lowerback 0.424945 -0.522845 -4.7562
upperback -0.848409 -0.81795 -1.31236
thorax -1.06527 -0.40099 1.3284
lowerneck -1.22493 2.15418 0.552135
upperneck -27.2709 0.676167 2.95387
head -8.246 -1.40999 1.06073
rclavicle -2.38542e-015 -5.1684e-015
rhumerus -37.2122 -6.50527 -80.5872
rradius 32.6081
rwrist 0.936879
rhand -14.4379 -47.1022
rfingers 7.12502
rthumb 11.7069 -76.7551
lclavicle -2.38542e-015 -5.1684e-015
lhumerus -30.8754 -4.97395 75.2883
lradius 32.3073
lwrist -1.55405
lhand -31.644 -20.4996
lfingers 7.12502
lthumb -4.90497 9.4236
rfemur -97.8376 5.73802 19.6711
rtibia 96.4561
rfoot -48.7786 -13.4573
rtoes -33.0446
lfemur -99.5468 -3.07394 -19.0367
ltibia 98.692
lfoot -35.6603 -1.41529
ltoes -9.24191
288
root 9.59448 11.5776 21.9183 -136.904 -0.211169 -180.474
lowerback 0.367084 -0.473561 -4.60886
upperback -0.959117 -0.756885 -1.41592
thorax -1.15329 -0.370838 1.13928
lowerneck -0.503667 1.63867 -0.625919
upperneck -28.3204 0.136062 4.65127
head -8.7367 -1.79533 1.91804
rclavicle -9.14409e-015 -3.02153e-014
rhumerus -35.4373 -5.4555 -81.7188
rradius 33.0165
rwrist 0.595358
rhand -15.1746 -46.0534
rfingers 7.12502
rthumb 10.9964 -75.7454
lclavicle -9.14409e-015 -3.02153e-014
lhumerus -29.6815 -5.95435 75.7147
lradius 32.8156
lwrist -0.721082
lhand -31.5505 -20.1118
lfingers 7.12502
lthumb -4.81468 9.81345
rfemur -97.9987 5.83252 19.7748
rtibia 96.8532
rfoot -49.0613 -13.3408
rtoes -33.3488
lfemur -99.79 -2.98018 -19.0375
ltibia 99.2331
lfoot -35.729 -1.8766
ltoes -7.66666
289
root 9.59284 11.5604 21.9081 -137.116 -0.559164 -180.605
lowerback 0.427345 -0.571521 -4.55806
upperback -0.949554 -0.893235 -1.45855
thorax -1.17142 -0.440433 1.06953
lowerneck -0.837626 1.50913 0.13473
upperneck -27.5451 -0.0815468 3.82973
head -8.39929 -1.82142 1.48788
rclavicle -6.75868e-015 -2.82274e-014
rhumerus -33.3854 -4.17126 -82.7649
rradius 33.3056
rwrist 0.240021
rhand -16.2019 -45.4548
rfingers 7.12502
rthumb 10.0054 -75.1969
lclavicle -6.75868e-015 -2.82274e-014
lhumerus -28.4794 -6.98491 76.1371
lradius 33.5251
lwrist 0.0540895
lhand -31.3267 -19.843
lfingers 7.12502
lthumb -4.59861 10.0871
rfemur -97.7827 5.57598 19.8965
rtibia 97.0383
rfoot -49.2485 -13.6187
rtoes -34.0552
lfemur -99.5596 -3.43032 -18.8587
ltibia 99.2441
lfoot -35.5847 -2.28425
ltoes -5.84423
290
root 9.5911 11.5519 21.8881 -137.491 -0.91774 -180.867
lowerback 0.382411 -0.586248 -4.54969
upperback -1.15448 -0.934817 -1.67343
thorax -1.35904 -0.462304 0.845934
lowerneck -0.525952 0.586527 1.91153
upperneck -26.04 -1.24402 2.48507
head -7.93411 -2.23552 0.75371
rclavicle 9.93923e-015 1.03368e-014
rhumerus -31.8623 -3.24154 -83.7804
rradius 33.9892
rwrist -0.00973423
rhand -15.2886 -46.5164
rfingers 7.12502
rthumb 10.8864 -76.2142
lclavicle 9.93923e-015 1.03368e-014
lhumerus -28.2646 -9.22177 76.5436
lradius 34.8989
lwrist 1.03748
lhand -30.8039 -19.4074
lfingers 7.12502
lthumb -4.09374 10.533
rfemur -97.3166 5.16274 19.962
rtibia 97.1589
rfoot -49.3752 -13.7837
rtoes -33.8687
lfemur -99.1323 -3.94347 -18.841
ltibia 99.2994
lfoot -35.5849 -2.79713
ltoes -4.30838
291
root 9.58763 11.5656 21.86 -138.334 -1.14895 -180.938
lowerback 0.655455 -0.641949 -4.63042
upperback -0.851964 -1.01043 -1.6705
thorax -1.19618 -0.504272 0.896495
lowerneck -0.576573 1.41302 1.56071
upperneck -26.7517 -0.17405 2.70037
head -8.17145 -1.79015 0.838047
rclavicle 1.59028e-015 1.78906e-014
rhumerus -29.3148 -1.95769 -84.539
rradius 34.5383
rwrist 0.302091
rhand -14.4194 -47.0404
rfingers 7.12502
rthumb 11.7247 -76.6922
lclavicle 1.59028e-015 1.78906e-014
lhumerus -27.5118 -11.0255 76.9092
lradius 36.5499
lwrist 1.6594
lhand -31.1996 -21.7369
lfingers 7.12502
lthumb -4.47587 8.19577
rfemur -96.1344 5.00506 20.0982
rtibia 97.1303
rfoot -49.5778 -13.8474
rtoes -33.7434
lfemur -98.0197 -4.22591 -18.827
ltibia 99.1351
lfoot -35.6756 -2.94098
ltoes -4.7835
292
root 9.59131 11.5871 21.8467 -138.567 -1.38372 -180.859
lowerback 0.313444 -0.674317 -4.7349
upperback -0.740374 -1.02345 -1.57702
thorax -0.885303 -0.515431 1.04486
lowerneck -0.388584 1.49868 0.410713
upperneck -27.8699 -0.133655 3.49937
head -8.5936 -1.84346 1.34189
rclavicle 1.19271e-014 1.39149e-014
rhumerus -27.0307 -0.469132 -85.0971
rradius 35.5923
rwrist 0.567481
rhand -13.895 -46.7218
rfingers 7.12502
rthumb 12.2303 -76.3442
lclavicle 1.19271e-014 1.39149e-014
lhumerus -26.6011 -12.8652 77.1772
lradius 38.1832
lwrist 1.82033
lhand -31.2069 -19.7927
lfingers 7.12502
lthumb -4.48292 10.1399
rfemur -95.5821 5.07618 20.2893
rtibia 96.98
rfoot -49.5995 -14.1165
rtoes -34.3176
lfemur -97.5655 -4.30812 -18.5917
ltibia 99.002
lfoot -35.7544 -2.87919
ltoes -5.93449
293
root 9.59173 11.6257 21.8243 -139.07 -1.73708 -180.824
lowerback 0.193981 -0.71806 -4.69947
upperback -0.629444 -1.0656 -1.52774
thorax -0.701502 -0.540222 1.07315
lowerneck -0.409556 1.88208 0.112893
upperneck -27.7813 0.473645 3.7418
head -8.57026 -1.53626 1.43043
rclavicle 1.51076e-014 5.64548e-014
rhumerus -24.9681 1.05664 -85.5433
rradius 36.9366
rwrist 0.410455
rhand -13.5675 -46.5977
rfingers 7.12502
rthumb 12.5462 -76.201
lclavicle 1.51076e-014 5.64548e-014
lhumerus -25.7233 -15.1693 77.2329
lradius 40.0915
lwrist 2.29037
lhand -29.8473 -19.3027
lfingers 7.12502
lthumb -3.16995 10.6535
rfemur -94.6863 4.98383 20.5227
rtibia 96.7785
rfoot -49.6282 -14.3865
rtoes -34.8159
lfemur -96.6332 -4.60927 -18.2846
ltibia 98.6814
lfoot -35.7896 -3.22038
ltoes -5.42353
294
root 9.59296 11.6768 21.8017 -139.525 -1.97004 -180.886
lowerback 0.0807704 -0.806241 -4.80368
upperback -0.435696 -1.16746 -1.49751
thorax -0.430864 -0.598199 1.15887
lowerneck -1.24782 1.80425 -0.925765
upperneck -27.3949 0.427619 4.59131
head -8.28693 -1.53178 1.88888
rclavicle -3.1408e-014 -5.56597e-014
rhumerus -22.5742 2.78724 -85.8829
rradius 38.4328
rwrist -0.120923
rhand -13.4039 -47.1867
rfingers 7.12502
rthumb 12.7038 -76.7803
lclavicle -3.1408e-014 -5.56597e-014
lhumerus -24.5714 -17.3927 76.9317
lradius 42.217
lwrist 2.717
lhand -28.3117 -17.9129
lfingers 7.12502
lthumb -1.68697 12.0602
rfemur -93.8735 4.89312 20.6309
rtibia 96.7547
rfoot -49.7408 -14.707
rtoes -35.6616
lfemur -95.5974 -4.89853 -18.0935
ltibia 98.1781
lfoot -35.7474 -3.82707
ltoes -4.13595
295
root 9.5938 11.7418 21.7773 -140.028 -2.07148 -180.989
lowerback 0.0337836 -0.791058 -4.96728
upperback -0.463887 -1.15234 -1.58544
thorax -0.433373 -0.592338 1.15936
lowerneck -1.59317 1.66219 -0.773644
upperneck -26.3245 0.315869 4.25856
head -7.85277 -1.46199 1.71658
rclavicle -1.27222e-014 0
rhumerus -20.907 4.61245 -86.1758
rradius 40.6208
rwrist -0.824852
rhand -12.8433 -48.0227
rfingers 7.12502
rthumb 13.2443 -77.5819
lclavicle -1.27222e-014 0
lhumerus -24.0857 -19.7337 76.4871
lradius 44.7451
lwrist 2.62508
lhand -28.8751 -19.6782
lfingers 7.12502
lthumb -2.23112 10.2899
rfemur -92.5836 4.76023 20.662
rtibia 95.9487
rfoot -49.4928 -14.906
rtoes -35.947
lfemur -94.3734 -5.13978 -18.0098
ltibia 97.499
lfoot -35.6295 -4.57509
ltoes -2.29355
296
root 9.59501 11.8211 21.7515 -140.517 -2.20853 -181.004
lowerback -0.0256314 -0.617654 -4.95037
upperback -0.623889 -0.935646 -1.81076
thorax -0.5812 -0.483946 0.918993
lowerneck -0.874608 1.64509 -0.86097
upperneck -26.7816 0.361557 4.44723
head -8.13802 -1.45263 1.80685
rclavicle -7.15625e-015 -1.59028e-014
rhumerus -19.5969 5.67533 -86.294
rradius 43.068
rwrist -1.8968
rhand -11.3499 -47.263
rfingers 7.12502
rthumb 14.6834 -76.723
lclavicle -7.15625e-015 -1.59028e-014
lhumerus -23.8385 -22.6343 75.8156
lradius 47.5331
lwrist 2.31571
lhand -28.9542 -20.2193
lfingers 7.12502
lthumb -2.30747 9.74801
rfemur -91.0198 4.68087 20.7307
rtibia 94.6359
rfoot -49.0654 -15.0221
rtoes -35.8125
lfemur -93.1143 -5.30665 -17.8577
ltibia 96.7156
lfoot -35.4068 -5.2026
ltoes -0.825054
297
root 9.59613 11.913 21.7197 -141.039 -2.30726 -180.989
lowerback -0.0970821 -0.428692 -4.946
upperback -0.791643 -0.697746 -2.01165
thorax -0.728974 -0.364952 0.710038
lowerneck -0.402391 1.59701 -1.03602
upperneck -26.8433 0.40197 4.68293
head -8.24478 -1.41195 1.9148
rclavicle -6.36111e-015 -2.3059e-014
rhumerus -18.401 7.03848 -86.2316
rradius 46.0783
rwrist -3.91414
rhand -11.1504 -48.5455
rfingers 7.12502
rthumb 14.8756 -77.9915
lclavicle -6.36111e-015 -2.3059e-014
lhumerus -23.4611 -25.5102 74.9397
lradius 50.2528
lwrist 2.07008
lhand -28.8125 -19.5835
lfingers 7.12502
lthumb -2.17058 10.3852
rfemur -89.7831 4.73862 20.723
rtibia 93.9596
rfoot -48.8554 -15.001
rtoes -35.3792
lfemur -91.67 -5.3866 -17.7536
ltibia 95.7495
lfoot -35.121 -5.3737
ltoes -1.35667
298
root 9.59486 12.0177 21.6796 -141.609 -2.37447 -181.011
lowerback -0.536957 -0.276569 -5.13959
upperback -0.763746 -0.464745 -2.03458
thorax -0.46384 -0.254023 0.790279
lowerneck 0.104118 1.62002 -1.52975
upperneck -26.9536 0.53681 5.02397
head -8.37954 -1.3104 2.10974
rclavicle -2.38542e-015 4.92986e-014
rhumerus -17.1995 9.14669 -85.6016
rradius 49.0516
rwrist -5.40016
rhand -10.7488 -49.2603
rfingers 7.12502
rthumb 15.2625 -78.6772
lclavicle -2.38542e-015 4.92986e-014
lhumerus -22.8816 -27.9638 73.9502
lradius 53.0477
lwrist 1.7431
lhand -28.0071 -18.3338
lfingers 7.12502
lthumb -1.39278 11.6414
rfemur -88.2945 4.72606 20.6702
rtibia 92.9906
rfoot -48.6249 -14.6922
rtoes -34.4741
lfemur -90.0264 -5.44364 -17.7614
ltibia 94.4953
lfoot -34.7932 -5.38552
ltoes -2.5393
299
root 9.59282 12.1377 21.6393 -142.091 -2.54652 -181.02
lowerback -1.08565 -0.105348 -5.20861
upperback -0.803802 -0.199935 -2.05421
thorax -0.210796 -0.126761 0.807416
lowerneck 0.764067 1.63352 -2.17281
upperneck -27.1056 0.672298 5.43732
head -8.55928 -1.19681 2.35712
rclavicle 7.95139e-015 4.01545e-014
rhumerus -16.0812 11.0331 -84.5908
rradius 52.4419
rwrist -6.85805
rhand -10.5569 -50.9002
rfingers 7.12502
rthumb 15.4473 -80.303
lclavicle 7.95139e-015 4.01545e-014
lhumerus -22.2982 -30.3492 72.7365
lradius 55.9194
lwrist 1.56662
lhand -29.0162 -19.7563
lfingers 7.12502
lthumb -2.36731 10.2103
rfemur -86.7992 4.60319 20.7648
rtibia 91.9207
rfoot -48.4629 -14.617
rtoes -34.1198
lfemur -88.548 -5.5665 -17.6996
ltibia 93.1696
lfoot -34.3292 -4.89567
ltoes -5.87131
300
root 9.593 12.2735 21.5967 -142.595 -2.70311 -181.047
lowerback -1.04374 0.117063 -5.17011
upperback -1.24809 0.0564411 -2.22321
thorax -0.705147 0.0103146 0.614376
lowerneck 1.32784 1.62228 -2.64889
upperneck -27.3174 0.748961 5.833
head -8.74163 -1.13623 2.57723
rclavicle -3.57812e-015 -3.02153e-014
rhumerus -15.5476 12.7269 -83.614
rradius 55.8426
rwrist -7.74598
rhand -9.35028 -51.4331
rfingers 7.12502
rthumb 16.6092 -80.7424
lclavicle -3.57812e-015 -3.02153e-014
lhumerus -22.1747 -32.8011 71.4435
lradius 58.6781
lwrist 1.62191
lhand -29.349 -19.8052
lfingers 7.12502
lthumb -2.68876 10.1576
rfemur -85.1848 4.52484 20.8417
rtibia 90.617
rfoot -48.0435 -14.7288
rtoes -33.7986
lfemur -87.0634 -5.63733 -17.7032
ltibia 91.9345
lfoot -33.657 -4.36817
ltoes -8.71189
301
root 9.59579 12.4247 21.5457 -143.135 -2.91702 -181.103
lowerback -1.76248 0.292251 -5.33541
upperback -1.20194 0.342075 -2.28144
thorax -0.269606 0.142208 0.651209
lowerneck 1.82135 1.67096 -3.34497
upperneck -27.4752 0.903268 6.27298
head -8.89931 -1.01941 2.84421
rclavicle 5.96354e-015 1.31198e-014
rhumerus -14.2824 14.6439 -82.0019
rradius 59.4912
rwrist -8.34115
rhand -12.2366 -46.1892
rfingers 7.12502
rthumb 13.829 -75.7095
lclavicle 5.96354e-015 1.31198e-014
lhumerus -21.1358 -34.7698 69.7427
lradius 61.1701
lwrist 1.73626
lhand -29.5133 -19.8161
lfingers 7.12502
lthumb -2.84741 10.1446
rfemur -83.1857 4.01993 21.232
rtibia 88.6673
rfoot -47.2578 -14.9041
rtoes -33.5235
lfemur -85.3048 -5.71477 -17.7077
ltibia 90.4342
lfoot -32.8284 -4.83618
ltoes -6.44054
